<svg width="67" height="65" viewBox="0 0 67 65" fill="none" xmlns="http://www.w3.org/2000/svg">
<path fill-rule="evenodd" stroke="#FFF" clip-rule="evenodd" d="M33.5 0C24.6152 0 16.0944 3.4241 9.81192 9.51903C3.52945 15.614 0 23.8805 0 32.5C0 41.1195 3.52945 49.386 9.81192 55.481C16.0944 61.5759 24.6152 65 33.5 65C42.3848 65 50.9056 61.5759 57.1881 55.481C63.4705 49.386 67 41.1195 67 32.5C67 23.8805 63.4705 15.614 57.1881 9.51903C50.9056 3.4241 42.3848 0 33.5 0ZM29.6346 12.495H45.0962C45.4379 12.495 45.7656 12.6267 46.0072 12.8611C46.2489 13.0955 46.3846 13.4135 46.3846 13.745V17.495H47.8638C49.5208 17.4983 51.1089 18.1384 52.2806 19.275C53.4522 20.4117 54.112 21.9525 54.1154 23.56V46.43C54.1154 49.77 51.3065 52.505 47.8638 52.505H19.1362C17.4783 52.4991 15.8902 51.8568 14.7188 50.7185C13.5474 49.5802 12.888 48.0384 12.8846 46.43V23.56C12.888 21.9525 13.5478 20.4117 14.7194 19.275C15.8911 18.1384 17.4792 17.4983 19.1362 17.495H28.3462V13.745C28.3462 13.4135 28.4819 13.0955 28.7235 12.8611C28.9652 12.6267 29.2929 12.495 29.6346 12.495ZM30.9231 14.995V17.495H43.8077V14.995H30.9231ZM19.1362 19.995C17.0773 19.995 15.4615 21.5625 15.4615 23.56V46.43C15.4615 48.4275 17.0773 49.995 19.1362 49.995H47.8638C49.9227 49.995 51.5385 48.4275 51.5385 46.43V23.56C51.5385 21.5625 49.9227 19.995 47.8638 19.995H19.1362ZM38.6538 22.495C44.3308 22.495 48.9615 26.9875 48.9615 32.495C48.9615 38.0025 44.3308 42.495 38.6538 42.495C32.9769 42.495 28.3462 38.0025 28.3462 32.495C28.3462 26.9875 32.9769 22.495 38.6538 22.495ZM19.3269 24.995H24.4808C24.8225 24.995 25.1502 25.1267 25.3919 25.3611C25.6335 25.5955 25.7692 25.9135 25.7692 26.245V36.245C25.7692 36.5765 25.6335 36.8945 25.3919 37.1289C25.1502 37.3633 24.8225 37.495 24.4808 37.495H19.3269C18.9861 37.4937 18.6597 37.3614 18.4192 37.1271C18.1787 36.8928 18.0436 36.5757 18.0436 36.245V26.245C18.0436 25.9143 18.1787 25.5972 18.4192 25.3629C18.6597 25.1286 18.9861 24.9963 19.3269 24.995ZM38.6538 24.995C34.3684 24.995 30.9231 28.3375 30.9231 32.495C30.9231 36.6525 34.3684 39.995 38.6538 39.995C42.9393 39.995 46.3846 36.6525 46.3846 32.495C46.3846 28.3375 42.9393 24.995 38.6538 24.995ZM20.6154 27.495V34.995H23.1923V27.495H20.6154ZM38.6538 27.495C41.4859 27.495 43.8077 29.7475 43.8077 32.495C43.8077 35.2425 41.4859 37.495 38.6538 37.495C35.8218 37.495 33.5 35.2425 33.5 32.495C33.5 29.7475 35.8218 27.495 38.6538 27.495ZM38.6538 30.005C38.3154 30.0017 37.9796 30.0637 37.666 30.1876C37.3525 30.3114 37.0676 30.4945 36.8277 30.7263C36.5879 30.958 36.398 31.2338 36.2691 31.5374C36.1402 31.8411 36.0749 32.1666 36.0769 32.495C36.0769 33.89 37.2159 34.995 38.6538 34.995C38.9928 34.9977 39.3289 34.9348 39.6425 34.81C39.9561 34.6853 40.2409 34.5012 40.4803 34.2684C40.7198 34.0357 40.909 33.759 41.0369 33.4545C41.1649 33.15 41.229 32.8238 41.2256 32.495C41.2284 32.1668 41.1637 31.8414 41.0354 31.5378C40.907 31.2342 40.7176 30.9584 40.4782 30.7266C40.2388 30.4948 39.9541 30.3115 39.6409 30.1877C39.3276 30.0638 38.9921 30.0017 38.6538 30.005ZM21.9038 39.995C24.0221 39.995 25.7692 41.69 25.7692 43.745C25.7692 45.8025 24.0221 47.495 21.9038 47.495C20.8799 47.4898 19.8993 47.0931 19.1747 46.3912C18.4502 45.6892 18.0401 44.7384 18.0333 43.745C18.0333 41.69 19.7856 39.995 21.9038 39.995ZM21.9038 42.495C21.1772 42.495 20.6154 43.04 20.6154 43.745C20.6154 44.45 21.1772 44.995 21.9038 44.995C22.6305 44.995 23.1923 44.45 23.1923 43.745C23.1923 43.04 22.6305 42.495 21.9038 42.495ZM32.2115 44.995C32.5533 44.995 32.881 45.1267 33.1226 45.3611C33.3643 45.5955 33.5 45.9135 33.5 46.245C33.5 46.5765 33.3643 46.8945 33.1226 47.1289C32.881 47.3633 32.5533 47.495 32.2115 47.495C31.8698 47.495 31.5421 47.3633 31.3005 47.1289C31.0588 46.8945 30.9231 46.5765 30.9231 46.245C30.9231 45.9135 31.0588 45.5955 31.3005 45.3611C31.5421 45.1267 31.8698 44.995 32.2115 44.995ZM38.6538 44.995H46.3846V47.495H38.6538V44.995Z" fill="" />
</svg>
