<svg width="66" height="64" viewBox="0 0 66 64" fill="none" xmlns="http://www.w3.org/2000/svg">
<path fill-rule="evenodd" clip-rule="evenodd" d="M33 0C24.2479 0 15.8542 3.37142 9.66548 9.37258C3.47678 15.3737 0 23.5131 0 32C0 40.4869 3.47678 48.6263 9.66548 54.6274C15.8542 60.6286 24.2479 64 33 64C41.7521 64 50.1458 60.6286 56.3345 54.6274C62.5232 48.6263 66 40.4869 66 32C66 23.5131 62.5232 15.3737 56.3345 9.37258C50.1458 3.37142 41.7521 0 33 0ZM32.9876 15.992V15.996C37.9768 15.996 42.0358 19.85 42.2338 24.64C42.2807 24.7587 42.3038 24.8849 42.3019 25.012C42.3019 28.312 40.7632 31.168 38.9606 33.812C37.1601 36.456 35.0707 38.94 33.7322 41.468C33.6444 41.6329 33.511 41.7708 33.3469 41.8664C33.1828 41.9619 32.9946 42.0113 32.8032 42.009C32.6119 42.0067 32.425 41.9529 32.2634 41.8534C32.1018 41.754 31.9719 41.6129 31.8883 41.446C30.6137 38.914 28.6275 36.434 26.9136 33.79C25.2533 31.228 23.8425 28.47 23.7559 25.312C23.7216 25.2086 23.7049 25.1006 23.7064 24.992C23.7064 20.032 27.8726 15.992 32.9876 15.992ZM32.9876 17.992C31.1023 17.9896 29.2913 18.7049 27.9443 19.9841C26.5974 21.2633 25.8221 23.0041 25.7854 24.832C25.7965 24.8914 25.802 24.9516 25.8019 25.012C25.8019 27.72 27.0249 30.2 28.6605 32.726C30.0073 34.802 31.5212 36.946 32.835 39.172C34.2189 36.938 35.8236 34.792 37.2426 32.712C38.9194 30.248 40.1651 27.826 40.227 25.212C40.2118 25.1396 40.2048 25.0658 40.2064 24.992C40.2064 21.114 36.9889 17.992 32.9876 17.992ZM32.9876 21.996C34.6851 21.996 36.0814 23.352 36.0814 24.996C36.0814 26.642 34.6851 27.996 32.9876 27.996C31.2923 27.996 29.8939 26.642 29.8939 24.996C29.8939 23.352 31.2923 21.996 32.9876 21.996ZM32.9876 23.996C32.406 23.996 31.9564 24.432 31.9564 24.996C31.9564 25.56 32.406 25.996 32.9876 25.996C33.5693 25.996 34.0189 25.56 34.0189 24.996C34.0189 24.432 33.5693 23.996 32.9876 23.996ZM41.4232 34.454C41.5611 34.4524 41.6978 34.4775 41.8254 34.528C44.1664 35.448 45.8886 36.688 46.794 38.234C47.6974 39.778 47.6231 41.67 46.5032 43.222C44.2633 46.33 38.9957 47.98 33.1217 48.004C27.2477 48.028 21.9285 46.418 19.5938 43.348C18.4264 41.814 18.2779 39.928 19.1338 38.368C19.9898 36.806 21.6727 35.542 23.9848 34.602C24.11 34.5493 24.2447 34.5212 24.3812 34.5194C24.5177 34.5176 24.6531 34.542 24.7798 34.5914C24.9064 34.6407 25.0217 34.7139 25.119 34.8068C25.2162 34.8996 25.2935 35.0103 25.3463 35.1323C25.3991 35.2543 25.4265 35.3853 25.4267 35.5176C25.4269 35.65 25.4 35.781 25.3477 35.9032C25.2953 36.0254 25.2184 36.1363 25.1214 36.2295C25.0245 36.3227 24.9095 36.3963 24.783 36.446C22.7597 37.268 21.4871 38.336 20.955 39.306C20.4249 40.274 20.4641 41.122 21.2541 42.16C22.8339 44.238 27.6684 46.026 33.1093 46.004C38.5502 45.982 43.3187 44.15 44.8119 42.078C45.5586 41.042 45.5709 40.198 44.9996 39.222C44.4304 38.248 43.1083 37.194 41.052 36.386C40.828 36.3015 40.6415 36.1439 40.5247 35.9403C40.4078 35.7367 40.368 35.4999 40.412 35.2708C40.456 35.0417 40.5811 34.8348 40.7658 34.6856C40.9504 34.5365 41.183 34.4546 41.4232 34.454Z" fill="" stroke="#fff" />
</svg>
