<svg width="67" height="65" viewBox="0 0 67 65" fill="none" xmlns="http://www.w3.org/2000/svg">
<path d="M33.5 0C24.6152 0 16.0944 3.4241 9.81192 9.51903C3.52945 15.614 0 23.8805 0 32.5C0 41.1195 3.52945 49.386 9.81192 55.481C16.0944 61.5759 24.6152 65 33.5 65C42.3848 65 50.9056 61.5759 57.1881 55.481C63.4705 49.386 67 41.1195 67 32.5C67 23.8805 63.4705 15.614 57.1881 9.51903C50.9056 3.4241 42.3848 0 33.5 0ZM14.4849 20V20.01L14.5364 20.05H52.8166C52.9863 20.0493 53.1544 20.0812 53.3113 20.1437C53.4682 20.2062 53.6108 20.2982 53.731 20.4143C53.8512 20.5305 53.9466 20.6685 54.0117 20.8205C54.0767 20.9725 54.1102 21.1354 54.1102 21.3V43.75C54.1102 43.9146 54.0767 44.0775 54.0117 44.2295C53.9466 44.3815 53.8512 44.5195 53.731 44.6357C53.6108 44.7518 53.4682 44.8438 53.3113 44.9063C53.1544 44.9688 52.9863 45.0007 52.8166 45H14.2427C13.9009 45 13.5732 44.8683 13.3316 44.6339C13.0899 44.3995 12.9542 44.0815 12.9542 43.75V22.0125L12.8846 21.9575L12.9542 21.87V21.29C12.9542 20.9585 13.0899 20.6405 13.3316 20.4061C13.5732 20.1717 13.9009 20.04 14.2427 20.04H14.454L14.4849 20ZM17.7859 22.54L33.5515 34.6575L49.294 22.54H17.7859ZM15.526 23.995V42.5H51.5282V24.005L34.3504 37.2375C34.1229 37.4119 33.8415 37.5067 33.5515 37.5067C33.2616 37.5067 32.9802 37.4119 32.7527 37.2375L15.526 23.995Z" fill="" stroke="#fff" />
</svg>
